<svg width="42" height="42" viewBox="0 0 42 42" fill="none" xmlns="http://www.w3.org/2000/svg">
<circle cx="20.9999" cy="20.9999" r="20.9999" fill="#F4F4F4"/>
<path d="M12 13.1138C12 12.8184 12.1173 12.5351 12.3262 12.3262C12.5351 12.1173 12.8184 12 13.1138 12H17.5688C17.8641 12 18.1474 12.1173 18.3563 12.3262C18.5652 12.5351 18.6825 12.8184 18.6825 13.1138V17.5688C18.6825 17.8641 18.5652 18.1474 18.3563 18.3563C18.1474 18.5652 17.8641 18.6825 17.5688 18.6825H13.1138C12.8184 18.6825 12.5351 18.5652 12.3262 18.3563C12.1173 18.1474 12 17.8641 12 17.5688V13.1138Z" stroke="black" stroke-linecap="round" stroke-linejoin="round"/>
<path d="M23.1375 13.1138C23.1375 12.8184 23.2548 12.5351 23.4637 12.3262C23.6726 12.1173 23.9559 12 24.2513 12H28.7063C29.0016 12 29.2849 12.1173 29.4938 12.3262C29.7027 12.5351 29.82 12.8184 29.82 13.1138V17.5688C29.82 17.8641 29.7027 18.1474 29.4938 18.3563C29.2849 18.5652 29.0016 18.6825 28.7063 18.6825H24.2513C23.9559 18.6825 23.6726 18.5652 23.4637 18.3563C23.2548 18.1474 23.1375 17.8641 23.1375 17.5688V13.1138Z" stroke="black" stroke-linecap="round" stroke-linejoin="round"/>
<path d="M12 24.2512C12 23.9558 12.1173 23.6726 12.3262 23.4637C12.5351 23.2548 12.8184 23.1375 13.1138 23.1375H17.5688C17.8641 23.1375 18.1474 23.2548 18.3563 23.4637C18.5652 23.6726 18.6825 23.9558 18.6825 24.2512V28.7062C18.6825 29.0016 18.5652 29.2849 18.3563 29.4938C18.1474 29.7026 17.8641 29.82 17.5688 29.82H13.1138C12.8184 29.82 12.5351 29.7026 12.3262 29.4938C12.1173 29.2849 12 29.0016 12 28.7062V24.2512Z" stroke="black" stroke-linecap="round" stroke-linejoin="round"/>
<path d="M23.1375 26.4787H29.82M26.4788 23.1375V29.82" stroke="#C11D37" stroke-linecap="round" stroke-linejoin="round"/>
</svg>
