<svg width="42" height="42" viewBox="0 0 42 42" fill="none" xmlns="http://www.w3.org/2000/svg">
<circle cx="20.9999" cy="20.9999" r="20.9999" fill="#F4F4F4"/>
<path d="M16.8707 13.129V16.871H13.1293V13.129H16.8707ZM17 13H13V17H17V13Z" fill="#ACACAC"/>
<path d="M16.8707 17.129V20.871H13.1293V17.129H16.8707ZM17 17H13V21H17V17Z" fill="#ACACAC"/>
<path d="M16.8707 21.129V24.871H13.1293V21.129H16.8707ZM17 21H13V25H17V21Z" fill="#ACACAC"/>
<path d="M16.8707 25.129V28.871H13.1293V25.129H16.8707ZM17 25H13V29H17V25Z" fill="#ACACAC"/>
<path d="M20.8707 13.129V16.871H17.1293V13.129H20.8707ZM21 13H17V17H21V13Z" fill="#ACACAC"/>
<path d="M20.8707 17.129V20.871H17.1293V17.129H20.8707ZM21 17H17V21H21V17Z" fill="#ACACAC"/>
<path d="M20.8707 21.129V24.871H17.1293V21.129H20.8707ZM21 21H17V25H21V21Z" fill="#ACACAC"/>
<path d="M20.8707 25.129V28.871H17.1293V25.129H20.8707ZM21 25H17V29H21V25Z" fill="#ACACAC"/>
<path d="M24.8707 13.129V16.871H21.1293V13.129H24.8707ZM25 13H21V17H25V13Z" fill="#ACACAC"/>
<path d="M24.8707 17.129V20.871H21.1293V17.129H24.8707ZM25 17H21V21H25V17Z" fill="#ACACAC"/>
<path d="M25 21H21V25H25V21Z" fill="#C11D37"/>
<path d="M24.8707 25.129V28.871H21.1293V25.129H24.8707ZM25 25H21V29H25V25Z" fill="#ACACAC"/>
<path d="M28.8707 13.129V16.871H25.1293V13.129H28.8707ZM29 13H25V17H29V13Z" fill="#ACACAC"/>
<path d="M28.8707 17.129V20.871H25.1293V17.129H28.8707ZM29 17H25V21H29V17Z" fill="#ACACAC"/>
<path d="M28.8707 21.129V24.871H25.1293V21.129H28.8707ZM29 21H25V25H29V21Z" fill="#ACACAC"/>
<path d="M28.8707 25.129V28.871H25.1293V25.129H28.8707ZM29 25H25V29H29V25Z" fill="#ACACAC"/>
<rect x="12.5909" y="12.5909" width="16.8181" height="16.8181" stroke="black"/>
</svg>
