<svg width="42" height="42" viewBox="0 0 42 42" fill="none" xmlns="http://www.w3.org/2000/svg">
<circle cx="20.9999" cy="20.9999" r="20.9999" fill="#F4F4F4"/>
<path d="M13.8182 22.5H16.5455" stroke="#C11D37" stroke-linecap="round" stroke-linejoin="round"/>
<path d="M22 14.3182V17.0454" stroke="#C11D37" stroke-linecap="round" stroke-linejoin="round"/>
<path d="M14.8409 14.3182H29.1591C29.4303 14.3182 29.6905 14.4259 29.8823 14.6177C30.0741 14.8095 30.1818 15.0697 30.1818 15.3409V20.4545C30.1818 20.7258 30.0741 20.9859 29.8823 21.1777C29.6905 21.3695 29.4303 21.4773 29.1591 21.4773H22C21.7288 21.4773 21.4686 21.585 21.2768 21.7768C21.085 21.9686 20.9773 22.2288 20.9773 22.5V29.6591C20.9773 29.9303 20.8695 30.1905 20.6777 30.3823C20.4859 30.5741 20.2258 30.6818 19.9545 30.6818H14.8409C14.5697 30.6818 14.3095 30.5741 14.1177 30.3823C13.9259 30.1905 13.8182 29.9303 13.8182 29.6591V15.3409C13.8182 15.0697 13.9259 14.8095 14.1177 14.6177C14.3095 14.4259 14.5697 14.3182 14.8409 14.3182Z" stroke="black" stroke-linecap="round" stroke-linejoin="round"/>
<path d="M13.8182 17.9545H15.6364" stroke="black" stroke-linecap="round" stroke-linejoin="round"/>
<path d="M13.8182 27.0455H15.6364" stroke="black" stroke-linecap="round" stroke-linejoin="round"/>
<path d="M18.3636 14.3182V16.1364" stroke="black" stroke-linecap="round" stroke-linejoin="round"/>
<path d="M26.5455 14.3182V16.1364" stroke="black" stroke-linecap="round" stroke-linejoin="round"/>
<path d="M14 12H30" stroke="#C11D37" stroke-linecap="round"/>
<path d="M12 14.5L12 30.5" stroke="#C11D37" stroke-linecap="round"/>
</svg>
