<svg width="42" height="42" viewBox="0 0 42 42" fill="none" xmlns="http://www.w3.org/2000/svg">
<circle cx="20.9999" cy="20.9999" r="20.9999" fill="#F4F4F4"/>
<path d="M31.0042 23.4823V29.3353C31.0208 29.4321 31.0208 29.5312 31.0042 29.628C30.9776 29.7262 30.921 29.8127 30.843 29.8743C30.7649 29.9359 30.6697 29.9692 30.5718 29.9692C30.474 29.9692 30.3788 29.9359 30.3007 29.8743C30.2227 29.8127 30.1661 29.7262 30.1395 29.628C30.1237 29.5154 30.1237 29.4011 30.1395 29.2885C30.1395 25.4333 30.1395 21.5781 30.1395 17.7229C30.1539 17.5534 30.1173 17.3835 30.0348 17.2366C29.9523 17.0898 29.828 16.9734 29.6791 16.9035L24.098 13.7546L21.2681 12.1743C21.1907 12.1179 21.0986 12.0876 21.0042 12.0876C20.9098 12.0876 20.8177 12.1179 20.7403 12.1743L13.6432 16.1895C13.1827 16.4587 12.7336 16.7279 12.2844 16.9738C12.1668 17.0286 12.0682 17.1197 12.0019 17.2349C11.9356 17.35 11.9049 17.4836 11.9138 17.6176V29.3236C11.9192 29.4211 11.9192 29.5188 11.9138 29.6163C11.8971 29.7311 11.839 29.835 11.7514 29.9068C11.6637 29.9786 11.5532 30.0128 11.4421 30.0026C11.3316 30.0029 11.225 29.9597 11.1438 29.8815C11.0626 29.8033 11.0127 29.696 11.0042 29.5812C10.9986 29.5189 10.9986 29.4562 11.0042 29.3939V17.6878C10.9832 17.3696 11.0545 17.0522 11.2086 16.7767C11.3628 16.5011 11.5928 16.2803 11.8689 16.1426L20.6841 11.0973C20.7797 11.0338 20.8908 11 21.0042 11C21.1176 11 21.2286 11.0338 21.3242 11.0973L30.2293 16.2012C30.4732 16.3313 30.6759 16.5318 30.8134 16.7788C30.9508 17.0259 31.017 17.3089 31.0042 17.5942V23.4823Z" fill="black"/>
<path d="M20.9873 19.5725H14.8896C14.4517 19.5725 14.4966 19.514 14.4966 19.9822V29.347C14.5078 29.456 14.5078 29.5658 14.4966 29.6748C14.47 29.7832 14.4062 29.8777 14.3172 29.9403C14.2281 30.0029 14.1201 30.0292 14.0137 30.0143C13.9148 30.0093 13.8208 29.9676 13.7488 29.8968C13.6767 29.826 13.6313 29.7306 13.6207 29.628C13.6151 29.5539 13.6151 29.4796 13.6207 29.4055V19.4788C13.6076 19.3693 13.6175 19.2582 13.6497 19.1531C13.6819 19.048 13.7357 18.9514 13.8072 18.8701C13.8788 18.7888 13.9665 18.7247 14.0642 18.6823C14.1619 18.6398 14.2673 18.6201 14.3731 18.6243H27.6016C27.7138 18.6085 27.828 18.6201 27.9352 18.6582C28.0424 18.6963 28.1395 18.7599 28.2191 18.844C28.2986 18.928 28.3583 19.0302 28.3934 19.1424C28.4285 19.2546 28.4381 19.3738 28.4214 19.4905V29.3821C28.427 29.464 28.427 29.5461 28.4214 29.628C28.4077 29.7293 28.3592 29.822 28.2848 29.8888C28.2104 29.9556 28.1153 29.9918 28.0171 29.9908C27.9169 30.0034 27.8157 29.9786 27.7314 29.9207C27.6471 29.8629 27.5852 29.7757 27.5567 29.6748C27.5397 29.5584 27.5397 29.44 27.5567 29.3236V19.8885C27.5567 19.5725 27.5567 19.5725 27.2647 19.5725H20.9873Z" fill="black"/>
<path d="M20.9873 21.3635H16.2597C16.1664 21.3751 16.0722 21.3751 15.9789 21.3635C15.8749 21.3411 15.7823 21.2801 15.7183 21.1918C15.6542 21.1035 15.6232 20.994 15.6308 20.8836C15.6212 20.7599 15.658 20.6372 15.7334 20.5411C15.8088 20.4451 15.9169 20.3832 16.0351 20.3685H25.9059C26.0266 20.368 26.1431 20.4145 26.2324 20.499C26.3218 20.5835 26.3776 20.6998 26.3888 20.825C26.3919 20.9473 26.349 21.0659 26.2692 21.1556C26.1895 21.2453 26.0792 21.2989 25.9621 21.305H20.9873V21.3635Z" fill="#C11D37"/>
<path d="M20.9986 27.8487H16.0238C15.9166 27.8346 15.8178 27.7807 15.7456 27.6968C15.6734 27.613 15.6327 27.5048 15.6308 27.3921C15.6239 27.2814 15.6569 27.172 15.7234 27.0854C15.7899 26.9988 15.885 26.9412 15.9902 26.9239C16.0684 26.9124 16.1478 26.9124 16.226 26.9239H25.7824C26.1642 26.9239 26.3776 27.0878 26.3888 27.3804C26.4 27.6731 26.1642 27.8721 25.7824 27.8721L20.9986 27.8487Z" fill="#C11D37"/>
<path d="M21.0098 23.5174H16.0463C15.9395 23.507 15.8395 23.458 15.7637 23.379C15.6878 23.2999 15.6408 23.1957 15.6308 23.0843C15.6222 22.9771 15.6501 22.8702 15.7097 22.7824C15.7692 22.6946 15.8566 22.6316 15.9565 22.6044C16.0497 22.5921 16.144 22.5921 16.2372 22.6044H25.7712C25.8644 22.5921 25.9587 22.5921 26.0519 22.6044C26.1517 22.6316 26.2391 22.6946 26.2987 22.7824C26.3583 22.8702 26.3862 22.9771 26.3776 23.0843C26.3676 23.1957 26.3206 23.2999 26.2447 23.379C26.1689 23.458 26.0689 23.507 25.9621 23.5174H21.0098Z" fill="#C11D37"/>
<path d="M21.0098 24.7466H25.9845C26.0899 24.7603 26.1872 24.8125 26.2592 24.894C26.3311 24.9754 26.3731 25.0808 26.3776 25.1914C26.3824 25.2999 26.3501 25.4066 26.2863 25.4924C26.2225 25.5782 26.1314 25.6375 26.0295 25.6597C25.9325 25.6717 25.8345 25.6717 25.7375 25.6597C22.5857 25.6597 19.4302 25.6597 16.2709 25.6597C16.1739 25.6717 16.0759 25.6717 15.9789 25.6597C15.8759 25.6398 15.7834 25.5811 15.7192 25.4947C15.655 25.4084 15.6235 25.3004 15.6308 25.1914C15.6374 25.0815 15.6801 24.9773 15.7517 24.8963C15.8232 24.8154 15.9193 24.7625 16.0238 24.7466H21.0098Z" fill="#C11D37"/>
<path d="M20.9873 30.0026H16.0238C15.9146 29.9936 15.8129 29.9412 15.7398 29.8562C15.6666 29.7712 15.6276 29.6602 15.6308 29.546C15.6344 29.4358 15.6744 29.3302 15.7439 29.2471C15.8134 29.1639 15.9083 29.1083 16.0126 29.0895H25.8835C25.9476 29.0788 26.0133 29.0828 26.0758 29.1011C26.1384 29.1194 26.1964 29.1517 26.2458 29.1957C26.2952 29.2396 26.3349 29.2942 26.3621 29.3557C26.3894 29.4172 26.4035 29.4842 26.4035 29.5519C26.4035 29.6196 26.3894 29.6865 26.3621 29.7481C26.3349 29.8096 26.2952 29.8642 26.2458 29.9081C26.1964 29.9521 26.1384 29.9843 26.0758 30.0027C26.0133 30.021 25.9476 30.025 25.8835 30.0143L20.9873 30.0026Z" fill="#C11D37"/>
<path d="M21.0098 16.7279H18.966C18.8636 16.7347 18.7621 16.7047 18.6783 16.6429C18.5946 16.5811 18.5336 16.4914 18.5056 16.3885C18.4761 16.294 18.4777 16.192 18.5103 16.0987C18.5429 16.0053 18.6045 15.926 18.6853 15.8734C18.7776 15.8075 18.8879 15.7746 18.9997 15.7797H22.9975C23.063 15.7715 23.1295 15.7778 23.1926 15.798C23.2557 15.8183 23.314 15.8522 23.3637 15.8974C23.4135 15.9426 23.4535 15.9983 23.4814 16.0607C23.5092 16.1231 23.5241 16.1909 23.5252 16.2597C23.5252 16.5523 23.3119 16.7279 22.9862 16.7279H21.0098Z" fill="black"/>
</svg>
