<svg width="14" height="12" viewBox="0 0 14 12" fill="none" xmlns="http://www.w3.org/2000/svg">
<path d="M11.6813 7.75C11.5263 7.75 11.4204 7.90643 11.4779 8.05023L12.7026 11.0881C12.7367 11.198 12.8188 11.25 12.9062 11.25C12.9336 11.25 12.9363 11.2449 12.9874 11.2346C13.0994 11.1893 13.1541 11.062 13.1096 10.95L11.8846 7.91208C11.8508 7.78008 11.7715 7.75 11.6813 7.75ZM2.31875 7.75C2.2292 7.75 2.1487 7.80447 2.11542 7.88762L0.890422 10.9255C0.845988 11.0375 0.900676 11.1648 1.01262 11.2102C1.01445 11.2445 1.06641 11.25 1.09375 11.25C1.18092 11.25 1.26295 11.1979 1.29713 11.1124L2.52186 8.07454C2.57961 7.90586 2.47352 7.75 2.31875 7.75ZM13.125 5.125H10.7803L9.72973 2.5H11.375C11.8582 2.5 12.25 2.10816 12.25 1.625C12.25 1.14184 11.8582 0.75 11.375 0.75H2.625C2.14184 0.75 1.75 1.14184 1.75 1.625C1.75 2.10816 2.14184 2.5 2.625 2.5H4.27055L3.22109 5.125H0.875C0.391836 5.125 0 5.51602 0 6C0 6.48316 0.391836 6.875 0.875 6.875H13.125C13.6082 6.875 14 6.48316 14 6C14 5.51602 13.609 5.125 13.125 5.125ZM2.625 2.0625C2.38383 2.0625 2.1875 1.86563 2.1875 1.625C2.1875 1.38437 2.38383 1.1875 2.625 1.1875H11.375C11.6162 1.1875 11.8125 1.38377 11.8125 1.625C11.8125 1.86623 11.6156 2.0625 11.375 2.0625H2.625ZM4.74141 2.5H9.25586L10.3059 5.125H3.69141L4.74141 2.5ZM13.125 6.4375H0.875C0.633828 6.4375 0.4375 6.24062 0.4375 6C0.4375 5.75938 0.633828 5.5625 0.875 5.5625H13.125C13.3662 5.5625 13.5625 5.75877 13.5625 6C13.5625 6.24123 13.3656 6.4375 13.125 6.4375Z" fill="black"/>
</svg>
