<svg width="9" height="14" viewBox="0 0 9 14" fill="none" xmlns="http://www.w3.org/2000/svg">
<path d="M0.335938 5.35208L0.335938 3.5C0.335938 2.42569 1.20608 1.55556 2.28038 1.55556H6.16927C7.24358 1.55556 8.11372 2.42569 8.11372 3.5V8.06458L7.33594 7.18958V3.5C7.33594 2.8559 6.81337 2.33333 6.16927 2.33333H2.28038C1.63628 2.33333 1.11372 2.8559 1.11372 3.5L1.11372 5.05556C0.839063 5.05556 0.561979 5.15278 0.338611 5.34965L0.335938 5.35208ZM0.335938 7.10208L1.11372 7.97708L1.11372 12.0556C1.11372 12.6999 1.63628 13.2222 2.28038 13.2222H6.16927C6.81337 13.2222 7.33594 12.6999 7.33594 12.0556V10.133C7.61059 10.133 7.88767 10.0358 8.11128 9.81701L8.11372 9.81458V12.0556C8.11372 13.1294 7.24358 14 6.16927 14H2.28038C1.20608 14 0.335938 13.1294 0.335938 12.0556L0.335938 7.10208ZM2.66927 0.388888C2.66927 0.175 2.84427 0 3.05816 0H5.39149C5.60538 0 5.78038 0.175 5.78038 0.388888C5.78038 0.602777 5.60538 0.777778 5.39149 0.777778H3.05816C2.84427 0.777778 2.66927 0.602777 2.66927 0.388888ZM3.83594 8.69896L3.83594 5.44444C3.83594 5.28403 3.93559 5.13819 4.08628 5.10174C4.23698 5.02396 4.40712 5.06528 4.49462 5.18681L7.60573 8.68681C7.76858 8.84722 7.75399 9.09271 7.59358 9.23611C7.43316 9.37708 7.18767 9.3625 7.04427 9.20208L4.59184 6.46771V9.72222C4.59184 9.88264 4.51406 10.0285 4.36337 10.0868C4.21267 10.1427 4.04253 10.1014 3.93316 9.97986L0.822049 6.47986C0.681076 6.34132 0.69566 6.07396 0.856076 5.95243C0.994618 5.78958 1.26198 5.80417 1.38351 5.96458L3.83594 8.69896Z" fill="black"/>
</svg>
