<svg width="12" height="16" viewBox="0 0 12 16" fill="none" xmlns="http://www.w3.org/2000/svg">
<path d="M7.99687 12.9719H4.00312C3.72669 12.9719 3.50375 13.1962 3.50406 13.4728L3.50312 14.1969C3.50343 14.3929 3.55969 14.5866 3.66825 14.7497L4.20387 15.5525C4.36716 15.798 4.74137 15.9988 5.03637 15.9988H6.96356C7.25787 15.9988 7.632 15.7977 7.79512 15.5525L8.32887 14.75C8.42116 14.6112 8.49578 14.3635 8.496 14.1969L8.49437 13.4991C8.49375 13.225 8.27187 12.9719 7.99687 12.9719ZM7.49687 14.2L6.99344 14.9641C6.97854 14.9776 6.94075 14.9979 6.96634 14.999L5.08227 15.0027C5.06903 14.9994 5.04671 14.9939 5.03781 14.9939C5.03341 14.9939 5.03359 14.9869 5.03781 14.9939L4.50343 14.1977L4.50312 13.9986H7.50125L7.50137 14.1605C7.49687 14.175 7.49062 14.2 7.49687 14.2C7.49687 14.2 7.49375 14.2032 7.49687 14.2ZM9.86875 1.60315C8.82719 0.565027 7.42437 -0.0365353 5.98437 0.000652229C2.95937 0.00922723 0.5 2.49659 0.5 5.54378C0.5 6.8844 0.983437 8.1794 1.86094 9.18753C2.2775 9.66597 2.98094 10.7372 3.2275 11.5632C3.26119 11.8346 3.50387 12.02 3.77875 11.9919C4.05072 11.9616 4.24687 11.7117 4.21969 11.4403L4.20064 11.3368C3.87846 10.244 3.07564 9.06059 2.61533 8.53153C1.89594 7.70315 1.5 6.64378 1.5 5.54378C1.5 3.00503 3.47031 1.0094 5.98437 1.00315H6C7.19156 1.00315 8.31406 1.46784 9.1625 2.31346C10.025 3.1719 10.5 4.31878 10.5 5.54378C10.5 6.64315 10.1041 7.70471 9.38531 8.5319C8.92437 9.06128 8.12156 10.2447 7.79937 11.3372L7.77984 11.4417C7.74712 11.7151 7.93416 11.9914 8.20703 12.0257C8.23145 12.0287 8.25487 12.0306 8.27831 12.0306C8.52197 12.0306 8.72706 11.8705 8.75831 11.6206C9.01906 10.7378 9.72269 9.66688 10.1396 9.18813C11.0156 8.17815 11.5 6.8844 11.5 5.54378C11.5 4.05315 10.9219 2.65284 9.86875 1.60315ZM6.5 2.50034C6.5 2.224 6.27637 2.00034 6 2.00034C4.07031 2.00034 2.5 3.57034 2.5 5.47221C2.5 5.77503 2.72375 6.00003 3 6.00003C3.27625 6.00003 3.5 5.77634 3.5 5.50003C3.5 4.1219 4.62125 3.02815 6 3.02815C6.275 3.00034 6.5 2.7769 6.5 2.50034Z" fill="black"/>
</svg>
