<svg width="25" height="25" viewBox="0 0 25 25" fill="none" xmlns="http://www.w3.org/2000/svg">
<path d="M24.0771 17.1479L18.7793 14.8774C18.1553 14.6073 17.4228 14.7892 16.9985 15.3156L14.8462 17.9426C11.4648 16.2824 8.71826 13.5334 7.0581 10.1545L9.68652 8.00313C10.21 7.57271 10.3906 6.84517 10.1221 6.22505L7.85156 0.923297C7.554 0.244097 6.81982 -0.127973 6.10254 0.0385308L1.18262 1.17378C0.486768 1.33248 0 1.94527 0 2.6606C0 14.9799 10.0195 24.9995 22.3389 24.9995C23.0552 24.9995 23.6665 24.5128 23.8262 23.8169L24.9614 18.895C25.127 18.1831 24.7119 17.4409 24.0771 17.1479ZM24.1992 18.7202L23.064 23.642C22.9883 23.979 22.6855 24.2182 22.3389 24.2182C10.4492 24.2182 0.78125 14.5454 0.78125 2.6606C0.78125 2.31119 1.01851 2.01363 1.35791 1.93404L6.27978 0.798785C6.63149 0.717925 6.99316 0.902545 7.13818 1.23521L9.40967 6.53306C9.53955 6.83795 9.4481 7.19224 9.19453 7.39976L6.09248 9.93882C9.13545 16.4574 14.3298 18.5668 15.0671 18.9134L17.6071 15.8114C17.8131 15.555 18.1696 15.4666 18.4729 15.5978L23.7707 17.8683C24.0967 18.0122 24.2822 18.3735 24.1992 18.7202Z" fill="#333333"/>
</svg>
