<svg width="21" height="21" viewBox="0 0 21 21" fill="none" xmlns="http://www.w3.org/2000/svg">
<path d="M19.6875 14.4375H16.0781C15.8977 14.4375 15.75 14.5852 15.75 14.7656C15.75 14.9461 15.8969 15.0938 16.0781 15.0938H19.6875C20.0493 15.0938 20.3438 15.3882 20.3438 15.75V19.6875C20.3438 20.0493 20.0493 20.3438 19.6875 20.3438H1.3125C0.95066 20.3438 0.65625 20.0493 0.65625 19.6875V15.75C0.65625 15.3882 0.95066 15.0938 1.3125 15.0938H4.92188C5.10234 15.0938 5.25 14.9461 5.25 14.7656C5.25 14.5852 5.10234 14.4375 4.92188 14.4375H1.3125C0.587754 14.4375 0 15.0253 0 15.75V19.6875C0 20.4122 0.587754 21 1.3125 21H19.6875C20.4122 21 21 20.4122 21 19.6875V15.75C21 15.024 20.4135 14.4375 19.6875 14.4375ZM19.0312 17.7188C19.0312 16.9969 18.4406 16.4062 17.7188 16.4062C16.9969 16.4062 16.4062 16.9969 16.4062 17.7188C16.4062 18.4406 16.9969 19.0312 17.7188 19.0312C18.4406 19.0312 19.0312 18.4406 19.0312 17.7188ZM17.0625 17.7188C17.0625 17.3569 17.3569 17.0625 17.7188 17.0625C18.0806 17.0625 18.375 17.3569 18.375 17.7188C18.375 18.0806 18.0797 18.375 17.7188 18.375C17.3578 18.375 17.0625 18.0797 17.0625 17.7188ZM10.2662 16.9682C10.3944 17.0963 10.602 17.0963 10.7301 16.9682L16.9645 10.7338C17.0297 10.6682 17.0625 10.5861 17.0625 10.5C17.0625 10.4139 17.0305 10.3321 16.9664 10.268C16.8382 10.1398 16.6305 10.1398 16.5025 10.268L10.8281 15.9428V0.328125C10.8281 0.14741 10.6805 0 10.5 0C10.3195 0 10.1719 0.14741 10.1719 0.328125V15.9428L4.49941 10.2662C4.37124 10.138 4.16358 10.138 4.03553 10.2662C3.90748 10.3944 3.90735 10.602 4.03553 10.7301L10.2662 16.9682Z" fill="black"/>
</svg>
