<svg width="14" height="14" viewBox="0 0 14 14" fill="none" xmlns="http://www.w3.org/2000/svg">
<path d="M13.0344 10.5C12.8957 10.7403 12.6438 10.875 12.3841 10.875C12.2571 10.875 12.1282 10.8428 12.01 10.7744L7.75 8.3V13.25C7.75 13.6641 7.41407 14 7.02813 14C6.64219 14 6.25 13.6656 6.25 13.25V8.3L1.9625 10.7756C1.84375 10.8156 1.715 10.875 1.58782 10.875C1.32807 10.875 1.07625 10.7403 0.937503 10.5C0.730472 10.1416 0.853534 9.6825 1.21191 9.47563L5.5 7L1.2125 4.52437C0.85344 4.31875 0.730628 3.85938 0.909378 3.5C1.14344 3.14375 1.6025 3.01562 1.96188 3.225L6.25 5.7V0.75C6.25 0.335938 6.5875 0 7 0C7.4125 0 7.75 0.335938 7.75 0.75V5.7L12.0375 3.22437C12.4 3.01562 12.8563 3.14375 13.0344 3.5C13.2414 3.85844 13.1184 4.3175 12.76 4.52437L8.47188 7L12.7594 9.47563C13.1469 9.68125 13.2688 10.1406 13.0344 10.5Z" fill="black"/>
</svg>
