<svg width="14" height="9" viewBox="0 0 14 9" fill="none" xmlns="http://www.w3.org/2000/svg">
<path d="M10.15 4.25039H3.85C3.6575 4.25039 3.5 4.40789 3.5 4.60039C3.5 4.79289 3.6568 4.95039 3.85 4.95039H10.15C10.3425 4.95039 10.5 4.79289 10.5 4.60039C10.5 4.40789 10.3425 4.25039 10.15 4.25039ZM10.15 6.00039H3.85C3.6575 6.00039 3.5 6.15789 3.5 6.35039C3.5 6.54289 3.6575 6.70039 3.85 6.70039H10.15C10.3432 6.70039 10.5 6.54359 10.5 6.35039C10.5 6.15719 10.3425 6.00039 10.15 6.00039ZM10.15 2.50039H3.85C3.6575 2.50039 3.5 2.65789 3.5 2.85039C3.5 3.04289 3.6575 3.20039 3.85 3.20039H10.15C10.3425 3.20039 10.5 3.04289 10.5 2.85039C10.5 2.65789 10.3425 2.50039 10.15 2.50039ZM12.95 1.80039H12.6C12.6 1.02689 11.9735 0.400391 11.2 0.400391H2.8C2.0265 0.400391 1.4 1.02689 1.4 1.80039H1.05C0.470313 1.80039 0 2.2707 0 2.85039V6.35039C0 6.93008 0.470313 7.40039 1.05 7.40039H1.4C1.4 8.17389 2.0265 8.80039 2.8 8.80039H11.2C11.9735 8.80039 12.6 8.17389 12.6 7.40039H12.95C13.5297 7.40039 14 6.93008 14 6.35039V2.85039C14 2.2707 13.5297 1.80039 12.95 1.80039ZM1.4 6.70039H1.05C0.856844 6.70039 0.7 6.54289 0.7 6.35039V2.85039C0.7 2.65789 0.856844 2.50039 1.05 2.50039H1.4V6.70039ZM11.9 7.40039C11.9 7.7867 11.5863 8.10039 11.2 8.10039H2.8C2.41369 8.10039 2.1 7.7867 2.1 7.40039V1.80039C2.1 1.41408 2.41369 1.10039 2.8 1.10039H11.2C11.5863 1.10039 11.9 1.41408 11.9 1.80039V7.40039ZM13.3 6.35039C13.3 6.54359 13.1432 6.70039 12.95 6.70039H12.6V2.50039H12.95C13.1425 2.50039 13.3 2.65789 13.3 2.85039V6.35039Z" fill="black"/>
</svg>
