<svg width="20" height="10" viewBox="0 0 20 10" fill="none" xmlns="http://www.w3.org/2000/svg">
<path d="M19.8163 5.44123L15.4413 9.81623C15.3202 9.93732 15.1601 9.99982 14.9999 9.99982C14.8397 9.99982 14.6801 9.93881 14.5581 9.8167C14.314 9.57256 14.314 9.17686 14.5581 8.9331L17.8671 5.62482H2.13389L5.44209 8.93303C5.68623 9.17717 5.68623 9.57287 5.44209 9.81662C5.32022 9.93732 5.16006 9.99982 4.9999 9.99982C4.83975 9.99982 4.68006 9.93881 4.55811 9.8167L0.183105 5.4417C-0.0610352 5.19756 -0.0610352 4.80186 0.183105 4.55811L4.55811 0.183105C4.80225 -0.0610352 5.19795 -0.0610352 5.4417 0.183105C5.68545 0.427246 5.68584 0.822949 5.4417 1.0667L2.13389 4.37482H17.8683L14.5601 1.06662C14.3159 0.82248 14.3159 0.426777 14.5601 0.183027C14.8042 -0.0607226 15.1999 -0.0611132 15.4437 0.183027L19.8187 4.55803C20.0624 4.80061 20.0624 5.19904 19.8163 5.44123Z" fill="black"/>
</svg>
