<svg width="19" height="16" viewBox="0 0 19 16" fill="none" xmlns="http://www.w3.org/2000/svg">
<path d="M18.8189 7.94455L11.7825 14.838C11.6425 14.9751 11.4135 15.0417 11.2608 15.0417C11.0917 15.0417 10.922 14.9878 10.7875 14.8789C10.5002 14.6463 10.4789 14.2499 10.7401 13.9941L16.7067 8.14822H0.703641C0.314666 8.14822 0 7.86798 0 7.5568C0 7.24561 0.314751 6.89487 0.703641 6.89487H16.7063L10.7387 1.0472C10.4776 0.791394 10.4988 0.394669 10.7861 0.162407C11.0741 -0.0689152 11.5186 -0.051799 11.7807 0.205256L18.8171 7.0987C19.0607 7.33746 19.0607 7.70563 18.8189 7.94455Z" fill="white"/>
</svg>
