<svg width="14" height="14" viewBox="0 0 14 14" fill="none" xmlns="http://www.w3.org/2000/svg">
<path d="M3 7.75C3 7.8875 2.88812 8 2.75 8C2.61188 8 2.5 7.8875 2.5 7.75V2.25C2.5 2.11188 2.61188 2 2.75 2C2.88812 2 3 2.11188 3 2.25V7.75ZM5 7.75C5 7.8875 4.8875 8 4.75 8C4.6125 8 4.5 7.8875 4.5 7.75V2.25C4.5 2.11188 4.6125 2 4.75 2C4.8875 2 5 2.11188 5 2.25V7.75ZM0 2C0 0.895313 0.895313 0 2 0H12C13.1031 0 14 0.895313 14 2V12C14 13.1031 13.1031 14 12 14H2C0.895313 14 0 13.1031 0 12V2ZM0.5 2V12C0.5 12.8281 1.17156 13.5 2 13.5H12C12.8281 13.5 13.5 12.8281 13.5 12V2C13.5 1.17156 12.8281 0.5 12 0.5H2C1.17156 0.5 0.5 1.17156 0.5 2Z" fill="black"/>
</svg>
