<svg width="14" height="12" viewBox="0 0 14 12" fill="none" xmlns="http://www.w3.org/2000/svg">
<path d="M2.33333 8.94401C2.33333 8.73012 2.50833 8.55512 2.72222 8.55512H4.27778C4.49167 8.55512 4.66667 8.73012 4.66667 8.94401C4.66667 9.1579 4.49167 9.3329 4.27778 9.3329H2.72222C2.50833 9.3329 2.33333 9.1579 2.33333 8.94401ZM5.44444 8.94401C5.44444 8.73012 5.61944 8.55512 5.83333 8.55512H8.94444C9.15833 8.55512 9.33333 8.73012 9.33333 8.94401C9.33333 9.1579 9.15833 9.3329 8.94444 9.3329H5.83333C5.61944 9.3329 5.44444 9.1579 5.44444 8.94401ZM0 2.3329C0 1.4737 0.696354 0.777344 1.55556 0.777344H12.4444C13.3024 0.777344 14 1.4737 14 2.3329V10.1107C14 10.9687 13.3024 11.6662 12.4444 11.6662H1.55556C0.696354 11.6662 0 10.9687 0 10.1107V2.3329ZM0.777778 2.3329V3.11068H13.2222V2.3329C13.2222 1.90342 12.8747 1.55512 12.4444 1.55512H1.55556C1.12608 1.55512 0.777778 1.90342 0.777778 2.3329ZM0.777778 5.44401H13.2222V3.88845H0.777778V5.44401ZM0.777778 6.22179V10.1107C0.777778 10.5409 1.12608 10.8885 1.55556 10.8885H12.4444C12.8747 10.8885 13.2222 10.5409 13.2222 10.1107V6.22179H0.777778Z" fill="black"/>
</svg>
