<svg width="14" height="14" viewBox="0 0 14 14" fill="none" xmlns="http://www.w3.org/2000/svg">
<path d="M4.37505 9.26425V3.93768C4.37505 3.69432 4.18091 3.50018 3.93755 3.50018C3.69419 3.50018 3.50005 3.69432 3.50005 3.93768V9.26425C2.99091 9.4454 2.62505 9.93089 2.62505 10.5016C2.62505 11.2262 3.21294 11.8141 3.91294 11.8141C4.66216 11.8127 5.25005 11.2248 5.25005 10.5002C5.25005 9.9287 4.88364 9.44471 4.37505 9.26425ZM6.56255 2.62518C6.56255 1.17597 5.38677 0.0247934 3.93755 0.0247934C2.48833 0.000186734 1.31255 1.17597 1.31255 2.62518V8.1869C0.77251 8.79886 0.44083 9.60194 0.437549 10.4838C0.427432 12.4033 1.98931 13.9865 3.91294 14.0002H3.93755C5.87212 14.0002 7.43755 12.4348 7.43755 10.5002C7.43755 9.61151 7.10614 8.80132 6.56255 8.18608V2.62518ZM3.93755 13.1252H3.92114C2.47876 13.1149 1.30653 11.9289 1.31337 10.4865C1.32021 9.40643 1.9286 8.80815 2.18837 8.51776V2.62518C2.18837 1.66132 2.9745 0.875184 3.91376 0.875184C4.87763 0.875184 5.66376 1.66132 5.66376 2.62518V8.51776C5.91327 8.80159 6.53876 9.40999 6.53876 10.5002C6.56255 11.9467 5.38403 13.1252 3.93755 13.1252ZM9.18755 1.75018H13.5625C13.8032 1.75018 14 1.55331 14 1.31268C14 1.07206 13.8032 0.875184 13.5625 0.875184H9.18755C8.94692 0.875184 8.75005 1.07206 8.75005 1.31268C8.75005 1.55331 8.94692 1.75018 9.18755 1.75018ZM13.5625 4.37518H9.18755C8.94692 4.37518 8.75005 4.57206 8.75005 4.81268C8.75005 5.05331 8.94692 5.25018 9.18755 5.25018H13.5625C13.8032 5.25018 14 5.05331 14 4.81268C14 4.57206 13.8032 4.37518 13.5625 4.37518ZM13.5625 7.87518H10.0625C9.82192 7.87518 9.62505 8.07206 9.62505 8.31268C9.62505 8.55328 9.82195 8.75018 10.0625 8.75018H13.5625C13.8032 8.75018 14 8.55328 14 8.31268C14 8.07206 13.8032 7.87518 13.5625 7.87518Z" fill="black"/>
</svg>
