<svg width="22" height="22" viewBox="0 0 22 22" fill="none" xmlns="http://www.w3.org/2000/svg">
<path d="M11 0C17.0758 0 22 4.92422 22 11C22 17.0758 17.0758 22 11 22C4.92422 22 0 17.0758 0 11C0 4.92422 4.92422 0 11 0ZM11 20.625C11.7176 20.625 12.7359 20.0063 13.6598 18.1629C14.0852 17.3121 14.4418 16.2465 14.6566 15.125H7.30469C7.5582 16.2465 7.91484 17.3121 8.34023 18.1629C9.26406 20.0063 10.2824 20.625 11 20.625ZM7.05977 13.75H14.9402C15.0605 12.882 15.125 11.9582 15.125 11C15.125 10.0418 15.0605 9.11797 14.9402 8.25H7.05977C6.93945 9.11797 6.875 10.0418 6.875 11C6.875 11.9582 6.93945 12.882 7.05977 13.75ZM14.6566 6.875C14.4418 5.71484 14.0852 4.68789 13.6598 3.83668C12.7359 1.99246 11.7176 1.375 11 1.375C10.2824 1.375 9.26406 1.99246 8.34023 3.83668C7.91484 4.68789 7.5582 5.71484 7.30469 6.875H14.6566ZM16.2895 8.25C16.4398 9.13086 16.5 10.0504 16.5 11C16.5 11.9496 16.4398 12.8691 16.2895 13.75H20.2254C20.4875 12.8777 20.625 11.9539 20.625 11C20.625 10.0461 20.4875 9.12227 20.2254 8.25H16.2895ZM14.0723 1.87602C14.9746 3.09332 15.6879 4.82969 16.1004 6.875H19.6969C18.5883 4.5332 16.5559 2.71219 14.0723 1.87602ZM7.92773 1.87602C5.44414 2.71219 3.41344 4.5332 2.30141 6.875H5.89961C6.31211 4.82969 7.02539 3.09332 7.92773 1.87602ZM1.375 11C1.375 11.9539 1.51422 12.8777 1.77375 13.75H5.67188C5.56016 12.8691 5.5 11.9496 5.5 11C5.5 10.0504 5.56016 9.13086 5.67188 8.25H1.77375C1.51422 9.12227 1.375 10.0461 1.375 11ZM19.6969 15.125H16.1004C15.6879 17.1703 14.9746 18.9062 14.0723 20.1223C16.5559 19.2887 18.5883 17.4668 19.6969 15.125ZM5.89961 15.125H2.30141C3.41344 17.4668 5.44414 19.2887 7.92773 20.1223C7.02539 18.9062 6.31211 17.1703 5.89961 15.125Z" fill="black"/>
</svg>
